<mxfile host="app.diagrams.net" modified="2024-07-30T23:22:51.222Z" agent="Mozilla/5.0 (Windows NT 10.0; Win64; x64) AppleWebKit/537.36 (KHTML, like Gecko) Chrome/127.0.0.0 Safari/537.36" version="24.7.0" etag="IzO9PajgZ4_BEXcs0so9" type="github">
  <diagram name="PÃ¡gina-1" id="2UYn3rsf6c--NWoE44eR">
    <mxGraphModel>
      <root>
        <mxCell id="0" />
        <mxCell id="1" parent="0" />
      </root>
    </mxGraphModel>
  </diagram>
</mxfile>
